<?xml version="1.0" encoding="UTF-8"?>
<svg width="123px" height="39px" viewBox="0 0 123 39" version="1.1" xmlns="http://www.w3.org/2000/svg" xmlns:xlink="http://www.w3.org/1999/xlink">
    <!-- Generator: Sketch 53.2 (72643) - https://sketchapp.com -->
    <title>logo</title>
    <desc>Created with Sketch.</desc>
    <g id="Page-1" stroke="none" stroke-width="1" fill="none" fill-rule="evenodd">
        <g id="landingpage" transform="translate(-59.000000, -28.000000)">
            <g id="header-sticky">
                <g id="logo/logo" transform="translate(59.000000, 28.000000)">
                    <g id="Group-2">
                        <g id="Group">
                            <path d="M6.04257642,5.35966192e-06 L37.8675306,5.35966192e-06 C38.0900121,5.35966192e-06 38.270369,0.181762042 38.270369,0.405970272 C38.270369,0.472480756 38.2541536,0.537972559 38.2231485,0.596686722 L18.4999187,37.9465274 C18.2349495,38.4482991 17.6300347,38.658112 17.1147559,38.426967 L0.557740353,30.9997816 C0.218559778,30.8476311 2.66453583e-05,30.5085395 2.63185882e-05,30.1343927 L2.34043934e-12,6.08947904 C-2.93726199e-06,2.72635559 2.70534829,2.9600632e-06 6.0425711,2.35860381e-12 L6.04257642,0 L6.04257642,5.35966192e-06 Z" id="Rectangle" fill="#BECF0E"></path>
                            <path d="M27.0187415,15.3146083 L17.8373063,32.7014739 C17.3404889,33.6422958 16.2062737,34.0356951 15.2401259,33.6022982 L2.94166106,28.0854236 L14.1548518,29.980944 C15.3557896,30.1839551 16.5677215,29.6874679 17.2874807,28.6976126 L27.0187415,15.3146083 Z" id="Path" fill="#FFFFFF"></path>
                        </g>
                        <g id="retest" transform="translate(39.445966, 12.003035)" fill-rule="nonzero">
                            <path d="M0,21.2860936 L0,5.31272749 C2.30423581,4.36276959 4.92268559,3.8350152 7.29674672,3.8350152 C8.55360262,3.8350152 9.49624454,3.97574971 10.6134498,4.32758596 L10.6134498,7.84594854 C9.67080786,7.56447953 8.79799127,7.45892865 7.71569869,7.45892865 C6.45884279,7.45892865 5.34163755,7.63484678 4.15460699,8.02186667 L4.15460699,21.2860936 L0,21.2860936 Z M27.4883515,13.440145 L15.7926091,13.440145 C15.9671725,16.6770386 17.677893,18.2954854 21.0644214,18.2954854 C23.1591812,18.2954854 24.9397271,17.6973637 26.6155349,16.4307532 L26.6155349,19.9491158 C24.5556877,21.1805427 22.8100546,21.6731135 20.4359934,21.6731135 C14.9896179,21.6731135 11.7776528,18.4010363 11.7776528,12.877207 C11.7776528,7.42374503 15.0943559,3.76464795 20.0868668,3.76464795 C23.1242685,3.76464795 25.568155,5.24236023 26.6853602,7.74039766 C27.2788755,9.11255906 27.4883515,10.4847205 27.4883515,13.3697778 L27.4883515,13.440145 Z M16.0719105,10.5199041 L23.4733952,10.5199041 C23.2988319,8.12741754 22.1118013,6.93117427 20.0170415,6.93117427 C17.9222816,6.93117427 16.4559498,8.26815205 16.0719105,10.5199041 Z" id="re" fill="#D01E6D"></path>
                            <path d="M28.9318558,7.70521404 L28.9318558,4.57387135 L31.7946943,4.57387135 L31.7946943,0 L35.7747379,0 L35.7747379,4.57387135 L39.5453056,4.57387135 L39.5453056,7.70521404 L35.7747379,7.70521404 L35.7747379,15.2345099 C35.7747379,17.6269965 36.2635152,18.2603018 38.0440611,18.2603018 C38.4281004,18.2603018 38.672489,18.2251181 39.196179,18.0492 L39.196179,21.1805427 C38.3233624,21.3564608 37.5901965,21.4268281 36.7522925,21.4268281 C34.6575327,21.4268281 33.2261135,20.8990737 32.4231222,19.8435649 C31.7597816,18.9991579 31.620131,18.2954854 31.620131,15.6918971 L31.620131,7.70521404 L28.9318558,7.70521404 Z M56.7344213,13.440145 L45.038679,13.440145 C45.2132423,16.6770386 46.9239628,18.2954854 50.3104912,18.2954854 C52.405251,18.2954854 54.1857969,17.6973637 55.8616047,16.4307532 L55.8616047,19.9491158 C53.8017576,21.1805427 52.0561244,21.6731135 49.6820632,21.6731135 C44.2356877,21.6731135 41.0237226,18.4010363 41.0237226,12.877207 C41.0237226,7.42374503 44.3404257,3.76464795 49.3329366,3.76464795 C52.3703384,3.76464795 54.8142248,5.24236023 55.9314301,7.74039766 C56.5249453,9.11255906 56.7344213,10.4847205 56.7344213,13.3697778 L56.7344213,13.440145 Z M45.3179803,10.5199041 L52.719465,10.5199041 C52.5449017,8.12741754 51.3578711,6.93117427 49.2631113,6.93117427 C47.1683515,6.93117427 45.7020196,8.26815205 45.3179803,10.5199041 Z M59.5744322,20.6879719 L59.5744322,16.8881404 C61.3549781,17.9788327 62.6467466,18.3658526 64.2527292,18.3658526 C65.9983624,18.3658526 67.0457423,17.6973637 67.0457423,16.6770386 C67.0457423,15.9029988 66.5220523,15.3048772 65.3350217,14.7771228 L63.6592139,13.9678994 C60.7614628,12.595738 59.5744322,11.1180257 59.5744322,8.90145731 C59.5744322,5.80529825 62.1230567,3.79983158 66.0681877,3.79983158 C67.6741702,3.79983158 68.8961134,4.04611696 70.4671833,4.74978947 L70.4671833,8.3385193 C68.9310261,7.35337778 67.8487335,6.96635789 66.347489,6.96635789 C64.6367685,6.96635789 63.5893886,7.59966316 63.5893886,8.6199883 C63.5893886,9.46439532 63.9036025,9.74586433 66.5220523,11.0476585 C68.4771615,12.0328 69.2452401,12.5253708 69.9434934,13.3345942 C70.6417466,14.1438175 71.0606986,15.2696936 71.0606986,16.4659368 C71.0606986,19.738014 68.5120741,21.7434807 64.3574672,21.7434807 C62.611834,21.7434807 61.1804148,21.4268281 59.5744322,20.6879719 Z M72.7835043,7.70521404 L72.7835043,4.57387135 L75.6463427,4.57387135 L75.6463427,0 L79.6263863,0 L79.6263863,4.57387135 L83.396954,4.57387135 L83.396954,7.70521404 L79.6263863,7.70521404 L79.6263863,15.2345099 C79.6263863,17.6269965 80.1151636,18.2603018 81.8957095,18.2603018 C82.2797488,18.2603018 82.5241374,18.2251181 83.0478274,18.0492 L83.0478274,21.1805427 C82.1750108,21.3564608 81.4418449,21.4268281 80.6039409,21.4268281 C78.5091811,21.4268281 77.0777619,20.8990737 76.2747706,19.8435649 C75.61143,18.9991579 75.4717794,18.2954854 75.4717794,15.6918971 L75.4717794,7.70521404 L72.7835043,7.70521404 Z" id="test" fill="#2E3542"></path>
                        </g>
                    </g>
                </g>
            </g>
        </g>
    </g>
</svg>
